<?xml version="1.0" standalone="no"?>
<!DOCTYPE svg PUBLIC "-//W3C//DTD SVG 20010904//EN"
 "http://www.w3.org/TR/2001/REC-SVG-20010904/DTD/svg10.dtd">
<svg version="1.0" xmlns="http://www.w3.org/2000/svg"
 width="225.000000pt" height="225.000000pt" viewBox="0 0 225.000000 225.000000"
 preserveAspectRatio="xMidYMid meet">

<g transform="translate(0.000000,225.000000) scale(0.100000,-0.100000)"
fill="#000000" stroke="none">
<path d="M936 1891 c62 -28 118 -101 199 -262 41 -81 75 -150 75 -154 0 -3
-16 -13 -35 -21 -37 -15 -48 -44 -17 -44 9 -1 89 -7 177 -15 123 -10 163 -11
171 -2 22 23 174 289 174 304 0 17 -13 15 -71 -10 l-36 -16 -39 81 c-47 96
-84 132 -154 147 -29 6 -145 11 -268 10 l-217 0 41 -18z"/>
<path d="M761 1843 c-12 -10 -63 -85 -115 -168 l-93 -150 161 -107 c88 -59
163 -104 167 -100 4 4 48 72 99 152 l93 145 -32 62 c-38 72 -101 147 -142 168
-39 21 -112 19 -138 -2z"/>
<path d="M1537 1358 c-87 -51 -156 -97 -155 -103 2 -7 44 -80 93 -163 l90
-152 96 0 c83 0 102 3 147 26 60 30 101 77 108 126 5 29 -6 52 -98 192 -57 88
-107 161 -113 163 -5 1 -81 -39 -168 -89z"/>
<path d="M337 1344 c-14 -14 -6 -24 38 -50 l46 -26 -21 -32 c-66 -100 -92
-158 -87 -189 3 -18 58 -126 124 -239 l118 -207 6 57 c3 31 13 72 22 89 20 37
184 294 196 306 4 4 25 -2 45 -14 20 -12 40 -18 44 -14 4 3 -30 77 -75 163
l-82 157 -184 3 c-101 1 -186 -1 -190 -4z"/>
<path d="M1266 821 c-47 -82 -86 -154 -86 -161 0 -22 189 -300 205 -300 12 0
15 12 15 55 l0 55 93 0 c139 0 145 5 242 180 174 314 170 306 144 287 -66 -48
-85 -52 -296 -55 l-203 -3 0 23 c0 32 -11 68 -20 68 -5 0 -47 -67 -94 -149z"/>
<path d="M686 803 c-24 -38 -49 -85 -56 -107 -17 -54 -9 -150 17 -184 l20 -27
211 -3 211 -2 3 195 3 195 -183 0 -182 0 -44 -67z"/>
</g>
</svg>
